<svg width="40" height="40" viewBox="0 0 40 40" fill="none" xmlns="http://www.w3.org/2000/svg">
<g clip-path="url(#clip0_3:9)">
<path d="M33.3333 38.1667C33.1667 38.1667 33 38.1667 32.8333 38.1667C27.5 37.5 22.1667 35.6667 17.6667 32.8333C13.5 30.1667 9.83334 26.5 7.16668 22.3333C4.16668 17.8333 2.33334 12.5 1.83334 7.16666C1.83334 5.83333 2.16668 4.49999 3.00001 3.49999C3.83334 2.49999 5.00001 1.83333 6.33334 1.66666C6.50001 1.66666 6.66668 1.66666 6.83334 1.66666H11.8333C14.3333 1.66666 16.5 3.49999 16.8333 5.99999C17 7.49999 17.3333 8.99999 17.8333 10.3333C18.5 12.1667 18 14.1667 16.6667 15.6667L15.5 16.8333C17.5 19.8333 20 22.5 23.1667 24.5L24.3333 23.3333C25.6667 22 27.8333 21.5 29.6667 22.1667C31 22.6667 32.5 23 34 23.1667C36.5 23.5 38.3333 25.6667 38.3333 28.1667V33.1667C38.3333 34.5 37.8333 35.8333 36.8333 36.6667C35.8333 37.5 34.6667 38.1667 33.3333 38.1667ZM11.8333 5H6.83334C6.33334 5 5.83334 5.33333 5.50001 5.66666C5.33334 6 5.16668 6.33333 5.16668 6.83333C5.66668 11.6667 7.33334 16.3333 10 20.5C12.5 24.3333 15.6667 27.6667 19.5 30C23.6667 32.6667 28.3333 34.3333 33.1667 34.8333C33.8333 34.8333 34.1667 34.6667 34.5 34.3333C34.8333 34 35 33.6667 35 33.1667V28.1667C35 27.3333 34.3333 26.6667 33.5 26.5C31.8333 26.3333 30.1667 25.8333 28.5 25.1667C27.8333 25 27.1667 25 26.6667 25.5L24.5 27.6667C24 28.1667 23.1667 28.3333 22.5 28C18 25.5 14.3333 21.8333 11.8333 17.3333C11.6667 16.6667 11.8333 15.8333 12.3333 15.3333L14.5 13.1667C14.8333 12.8333 15 12 14.8333 11.5C14.1667 9.83333 13.8333 8.16666 13.5 6.5C13.5 5.66666 12.6667 5 11.8333 5ZM31.6667 16.6667C30.8333 16.6667 30.1667 16.1667 30 15.3333C29.5 12.6667 27.3333 10.6667 24.6667 10C23.8333 9.83333 23.1667 9 23.3333 8C23.5 7.16666 24.3333 6.5 25.3333 6.66666C29.3333 7.5 32.5 10.5 33.1667 14.5C33.3333 15.3333 32.8333 16.3333 31.8333 16.5C31.8333 16.5 31.8333 16.6667 31.6667 16.6667ZM38.3333 16.5C37.5 16.5 36.8333 15.8333 36.6667 15C36 8.83333 31.1667 4 24.8333 3.16666C24 3 23.3333 2.16666 23.3333 1.33333C23.3333 0.499995 24.3333 -0.166672 25.1667 -0.166672C33 0.666662 39 6.66666 39.8333 14.5C40 15.3333 39.3333 16.1667 38.3333 16.3333C38.5 16.5 38.3333 16.5 38.3333 16.5Z" fill="black"/>
</g>
<defs>
<clipPath id="clip0_3:9">
<rect width="40" height="40" fill="white"/>
</clipPath>
</defs>
</svg>
